<svg width="48" height="48" viewBox="0 0 48 48" fill="none" xmlns="http://www.w3.org/2000/svg">
<path fill-rule="evenodd" clip-rule="evenodd" d="M5.1875 12C5.1875 10.4467 6.4467 9.1875 8 9.1875H40C41.5533 9.1875 42.8125 10.4467 42.8125 12C42.8125 13.5533 41.5533 14.8125 40 14.8125H8C6.4467 14.8125 5.1875 13.5533 5.1875 12ZM5.1875 24C5.1875 22.4467 6.4467 21.1875 8 21.1875H40C41.5533 21.1875 42.8125 22.4467 42.8125 24C42.8125 25.5533 41.5533 26.8125 40 26.8125H8C6.4467 26.8125 5.1875 25.5533 5.1875 24ZM5.1875 36C5.1875 34.4467 6.4467 33.1875 8 33.1875H40C41.5533 33.1875 42.8125 34.4467 42.8125 36C42.8125 37.5533 41.5533 38.8125 40 38.8125H8C6.4467 38.8125 5.1875 37.5533 5.1875 36Z" fill="white"/>
</svg>
