<svg width="34" height="34" viewBox="0 0 34 34" fill="none" xmlns="http://www.w3.org/2000/svg">
<path d="M2 0.59375C1.22335 0.59375 0.59375 1.22335 0.59375 2C0.59375 2.77665 1.22335 3.40625 2 3.40625L2 0.59375ZM6.16667 2L7.531 1.65923C7.3746 1.03307 6.81206 0.59375 6.16667 0.59375V2ZM28.6667 25.0926C29.4433 25.0926 30.0729 24.463 30.0729 23.6863C30.0729 22.9097 29.4433 22.2801 28.6667 22.2801V25.0926ZM32 5.33635L33.3643 5.67713C33.4693 5.25705 33.3748 4.81206 33.1083 4.47081C32.8418 4.12956 32.433 3.93011 32 3.93011V5.33635ZM28.6667 18.6818V20.088C29.3121 20.088 29.8746 19.6487 30.031 19.0226L28.6667 18.6818ZM2 3.40625H6.16667L6.16667 0.59375H2L2 3.40625ZM4.80233 2.34077L5.63566 5.67713L8.36434 4.99558L7.531 1.65923L4.80233 2.34077ZM5.63566 5.67713L8.969 19.0226L11.6977 18.341L8.36434 4.99558L5.63566 5.67713ZM10.3333 17.2755H9.5V20.088H10.3333V17.2755ZM9.5 25.0926H28.6667V22.2801H9.5V25.0926ZM5.59375 21.184C5.59375 23.3415 7.34144 25.0926 9.5 25.0926V22.2801C8.89714 22.2801 8.40625 21.7906 8.40625 21.184H5.59375ZM9.5 17.2755C7.34144 17.2755 5.59375 19.0266 5.59375 21.184H8.40625C8.40625 20.5775 8.89714 20.088 9.5 20.088V17.2755ZM7 6.7426H32V3.93011H7V6.7426ZM30.6357 4.99558L27.3023 18.341L30.031 19.0226L33.3643 5.67713L30.6357 4.99558ZM28.6667 17.2755H10.3333V20.088H28.6667V17.2755ZM27.2604 30.359C27.2604 30.5049 27.1426 30.6209 27 30.6209V33.4334C28.6983 33.4334 30.0729 32.0558 30.0729 30.359H27.2604ZM27 30.6209C26.8574 30.6209 26.7396 30.5049 26.7396 30.359H23.9271C23.9271 32.0558 25.3017 33.4334 27 33.4334V30.6209ZM26.7396 30.359C26.7396 30.2132 26.8574 30.0971 27 30.0971V27.2846C25.3017 27.2846 23.9271 28.6623 23.9271 30.359H26.7396ZM27 30.0971C27.1426 30.0971 27.2604 30.2132 27.2604 30.359H30.0729C30.0729 28.6623 28.6983 27.2846 27 27.2846V30.0971ZM10.5937 30.359C10.5937 30.5049 10.476 30.6209 10.3333 30.6209V33.4334C12.0317 33.4334 13.4062 32.0558 13.4062 30.359H10.5937ZM10.3333 30.6209C10.1907 30.6209 10.0729 30.5049 10.0729 30.359H7.26042C7.26042 32.0558 8.63501 33.4334 10.3333 33.4334V30.6209ZM10.0729 30.359C10.0729 30.2132 10.1907 30.0971 10.3333 30.0971V27.2846C8.63501 27.2846 7.26042 28.6623 7.26042 30.359H10.0729ZM10.3333 30.0971C10.476 30.0971 10.5937 30.2132 10.5937 30.359H13.4062C13.4062 28.6623 12.0317 27.2846 10.3333 27.2846V30.0971Z" fill="white"/>
</svg>
