<svg width="30" height="30" viewBox="0 0 30 30" fill="none" xmlns="http://www.w3.org/2000/svg">
<path fill-rule="evenodd" clip-rule="evenodd" d="M6.25002 4.56363C5.73088 4.56363 5.25397 4.84964 5.00948 5.3076C4.76499 5.76556 4.7927 6.32097 5.08155 6.75233L12.1492 17.3067V27.2199C12.1492 27.7271 12.4223 28.195 12.864 28.4444C13.3056 28.6938 13.8473 28.686 14.2817 28.4241L17.1719 26.6812C17.594 26.4267 17.852 25.9698 17.852 25.4769V17.3078L24.9186 6.75218C25.2074 6.32082 25.235 5.76545 24.9905 5.30753C24.746 4.84961 24.2691 4.56363 23.75 4.56363H6.25002ZM14.7239 16.0969L8.88412 7.37613H21.1163L15.2772 16.0983C15.1222 16.3298 15.0395 16.602 15.0395 16.8806V24.6828L14.9617 24.7297V16.8794C14.9617 16.6008 14.8789 16.3284 14.7239 16.0969Z" fill="black"/>
</svg>
