<svg width="30" height="30" viewBox="0 0 30 30" fill="none" xmlns="http://www.w3.org/2000/svg">
<path d="M19.7444 17.7556C19.1952 17.2065 18.3048 17.2065 17.7556 17.7556C17.2065 18.3048 17.2065 19.1952 17.7556 19.7444L19.7444 17.7556ZM25.2556 27.2444C25.8048 27.7935 26.6952 27.7935 27.2444 27.2444C27.7935 26.6952 27.7935 25.8048 27.2444 25.2556L25.2556 27.2444ZM12.5 19.8438C8.44416 19.8438 5.15625 16.5558 5.15625 12.5H2.34375C2.34375 18.1091 6.89086 22.6563 12.5 22.6563V19.8438ZM19.8438 12.5C19.8438 16.5558 16.5558 19.8438 12.5 19.8438V22.6563C18.1091 22.6563 22.6563 18.1091 22.6563 12.5H19.8438ZM12.5 5.15625C16.5558 5.15625 19.8438 8.44416 19.8438 12.5H22.6563C22.6563 6.89086 18.1091 2.34375 12.5 2.34375V5.15625ZM12.5 2.34375C6.89086 2.34375 2.34375 6.89086 2.34375 12.5H5.15625C5.15625 8.44416 8.44416 5.15625 12.5 5.15625V2.34375ZM17.7556 19.7444L25.2556 27.2444L27.2444 25.2556L19.7444 17.7556L17.7556 19.7444Z" fill="black"/>
</svg>
